<?xml version="1.0" standalone="no"?>
<!DOCTYPE svg PUBLIC "-//W3C//DTD SVG 20010904//EN"
 "http://www.w3.org/TR/2001/REC-SVG-20010904/DTD/svg10.dtd">
<svg version="1.0" xmlns="http://www.w3.org/2000/svg"
 width="68.000000pt" height="68.000000pt" viewBox="0 0 68.000000 68.000000"
 preserveAspectRatio="xMidYMid meet">

<g transform="translate(0.000000,68.000000) scale(0.100000,-0.100000)"
fill="#000000" stroke="none">
<path d="M100 572 l-65 -38 -3 -216 -2 -215 64 -17 c69 -17 368 -23 495 -10
l61 7 0 252 0 252 -117 6 c-65 4 -174 9 -243 12 l-125 5 -65 -38z m315 13 c72
-3 151 -8 178 -11 44 -6 47 -8 47 -35 0 -32 -15 -39 -22 -11 -5 17 -22 19
-174 26 -93 3 -186 9 -206 12 l-38 7 0 -226 0 -225 48 -4 c26 -2 120 -2 210 0
128 4 162 7 162 18 0 8 5 14 10 14 6 0 10 -13 10 -28 l0 -29 -222 -6 c-122 -3
-226 -4 -230 -1 -4 3 -8 120 -8 261 l0 255 53 -5 c28 -4 110 -9 182 -12z
m-250 -493 c-3 -3 -29 2 -58 11 l-52 16 3 198 c2 109 5 203 7 210 2 7 26 23
52 37 l48 24 3 -246 c1 -135 0 -247 -3 -250z m343 442 c50 -4 92 -10 92 -15 0
-5 -11 -9 -25 -9 -14 0 -28 -7 -31 -15 -8 -20 13 -45 37 -45 15 0 19 -8 19
-40 0 -32 -4 -40 -19 -40 -10 0 -25 -7 -32 -16 -11 -14 -10 -19 10 -35 13 -11
29 -19 37 -19 10 0 14 -13 14 -40 0 -35 -3 -40 -22 -40 -58 -1 -64 -48 -9 -66
l34 -11 -54 -6 c-75 -9 -337 -9 -342 1 -3 4 -2 99 1 211 l5 203 96 -6 c53 -4
138 -9 189 -12z m132 -55 c0 -17 -5 -20 -37 -17 -27 2 -39 8 -41 21 -3 14 4
17 37 17 35 0 41 -3 41 -21z m0 -69 c0 -22 -4 -40 -10 -40 -5 0 -10 18 -10 40
0 22 5 40 10 40 6 0 10 -18 10 -40z m0 -76 c0 -11 -9 -14 -37 -12 -52 4 -56
28 -4 28 30 0 41 -4 41 -16z m0 -74 c0 -22 -4 -40 -10 -40 -5 0 -10 18 -10 40
0 22 5 40 10 40 6 0 10 -18 10 -40z m0 -75 c0 -11 -11 -15 -39 -15 -38 0 -57
10 -44 24 3 3 24 6 45 6 27 0 38 -4 38 -15z"/>
<path d="M394 512 c-6 -4 -16 -17 -23 -30 -27 -52 46 -116 89 -77 24 22 27 77
4 99 -16 17 -51 21 -70 8z m60 -18 c29 -29 14 -84 -23 -84 -21 0 -51 30 -51
51 0 21 26 49 45 49 7 0 21 -7 29 -16z"/>
<path d="M404 475 c-9 -23 3 -45 25 -45 25 0 34 14 26 40 -7 23 -43 27 -51 5z
m36 -15 c0 -11 -4 -20 -9 -20 -14 0 -23 18 -16 30 10 17 25 11 25 -10z"/>
<path d="M421 363 c-1 -13 -7 -23 -15 -23 -7 0 -19 -7 -27 -16 -7 -8 -21 -13
-31 -11 -18 5 -24 -4 -12 -16 11 -11 11 -81 0 -96 -9 -11 -7 -13 10 -7 14 4
26 1 34 -9 7 -8 19 -15 26 -15 8 0 14 -7 14 -15 0 -8 5 -15 10 -15 6 0 10 6
10 14 0 8 19 23 43 35 23 12 37 21 31 21 -11 0 -11 76 0 87 11 12 6 22 -9 17
-16 -7 -66 29 -77 54 -5 14 -7 12 -7 -5z m-1 -47 c0 -15 -29 -30 -39 -20 -3 3
3 12 13 20 24 17 26 17 26 0z m49 -9 c6 -8 8 -17 5 -20 -7 -7 -44 14 -44 25 0
13 27 9 39 -5z m-19 -52 c0 -30 -16 -41 -35 -25 -18 15 -20 47 -2 53 21 7 37
-4 37 -28z m-70 1 c0 -14 -4 -28 -10 -31 -6 -4 -10 7 -10 24 0 17 5 31 10 31
6 0 10 -11 10 -24z m110 -1 c0 -14 -4 -25 -10 -25 -11 0 -14 33 -3 43 11 11
13 8 13 -18z m-72 -58 c3 -16 1 -17 -17 -7 -25 13 -28 33 -4 28 10 -2 19 -11
21 -21z m52 14 c0 -12 -20 -25 -27 -18 -7 7 6 27 18 27 5 0 9 -4 9 -9z"/>
</g>
</svg>
